<?xml version="1.0" encoding="UTF-8"?>
<svg id="_Слой_1" data-name="Слой 1" xmlns="http://www.w3.org/2000/svg" viewBox="0 0 60.24 44.32">
  <defs>
    <style>
      .cls-1 {
        font-family: Heebo-Bold, Heebo;
        font-size: 20.25px;
        font-variation-settings: 'wght' 700;
        font-weight: 700;
      }

      .cls-1, .cls-2 {
        fill: #7594b1;
      }

      .cls-2 {
        fill-rule: evenodd;
      }
    </style>
  </defs>
  <path class="cls-2" d="M57.24,1.23c.18-.84.98-1.37,1.8-1.19.82.18,1.34,1.01,1.16,1.85l-8.78,41.21c-.15.73-.78,1.23-1.48,1.23H10.3c-.75,0-1.37-.56-1.5-1.29L.03,1.89C-.14,1.05.38.22,1.2.04c.82-.18,1.63.35,1.81,1.19l8.52,39.97h37.19L57.24,1.23Z"/>
  <path class="cls-2" d="M3.27,10.86c.44,0,1.34-1.02,2.23-2.04,1.34-1.54,2.69-3.07,4.48-3.07s3.14,1.54,4.48,3.07c.89,1.02,1.78,2.04,2.23,2.04s1.34-1.02,2.23-2.04c1.34-1.54,2.69-3.07,4.48-3.07s3.14,1.54,4.48,3.07c.89,1.02,1.78,2.04,2.23,2.04s1.34-1.02,2.23-2.04c1.34-1.54,2.69-3.07,4.48-3.07s3.14,1.54,4.48,3.07c.89,1.02,1.78,2.04,2.23,2.04s1.34-1.02,2.23-2.04c1.34-1.54,2.69-3.07,4.48-3.07s3.14,1.54,4.48,3.07c.89,1.02,1.78,2.04,2.23,2.04v3.12c-1.79,0-3.14-1.54-4.48-3.07-.89-1.02-1.78-2.04-2.23-2.04s-1.34,1.02-2.23,2.04c-1.35,1.53-2.69,3.07-4.48,3.07s-3.14-1.54-4.48-3.07c-.89-1.02-1.78-2.04-2.23-2.04s-1.34,1.02-2.23,2.04c-1.35,1.53-2.69,3.07-4.48,3.07s-3.14-1.54-4.48-3.07c-.89-1.02-1.78-2.04-2.23-2.04s-1.34,1.02-2.23,2.04c-1.34,1.53-2.69,3.07-4.48,3.07s-3.14-1.54-4.48-3.07c-.89-1.02-1.78-2.04-2.23-2.04s-1.34,1.02-2.23,2.03c-1.34,1.54-2.69,3.07-4.48,3.07v-3.12Z"/>
  <text class="cls-1" transform="translate(17.96 35)"><tspan x="0" y="0">30</tspan></text>
  <path class="cls-2" d="M44.04,16.64c.72,0,1.37.3,1.84.78h0s0,0,0,0c.47.48.76,1.15.76,1.89s-.29,1.41-.76,1.89h0c-.47.49-1.12.79-1.84.79s-1.37-.3-1.84-.78h0s0,0,0,0c-.47-.48-.76-1.15-.76-1.89s.29-1.4.76-1.89h0s0,0,0,0c.47-.48,1.12-.78,1.84-.78h0ZM45.17,18.15c-.29-.29-.68-.48-1.13-.48s-.84.18-1.13.48h0c-.29.3-.46.71-.46,1.16s.18.86.46,1.16h0c.29.3.69.48,1.13.48s.84-.18,1.13-.48h0c.29-.3.46-.71.46-1.16s-.18-.86-.46-1.16h0Z"/>
</svg>