<?xml version="1.0" encoding="UTF-8"?>
<svg id="Layer_1" data-name="Layer 1" xmlns="http://www.w3.org/2000/svg" viewBox="0 0 32 32">
  <defs>
    <style>
      .cls-1 {
        fill: #fff;
      }
    </style>
  </defs>
  <g id="Layer_2" data-name="Layer 2">
    <g id="Layer_2_copy_8" data-name="Layer 2 copy 8">
      <g id="_48" data-name=" 48">
        <circle id="background" cx="16" cy="16" r="16"/>
        <g>
          <path class="cls-1" d="M24.9,11.04c-2.16.46-4.38.63-6.59.5-.43-.13-.87-.23-1.32-.31-.66-.11-1.33-.11-1.98,0-.45.08-.89.18-1.32.31-2.21.13-4.42-.04-6.59-.5-.63-.15-1.25.25-1.4.87-.14.62.24,1.24.85,1.39,2.25.59,7.13.43,7.13.43v3.96l-1.32.97c-1.47,1.08-2.34,2.8-2.34,4.63v1.14c0,.62.5,1.12,1.12,1.12s1.12-.5,1.12-1.12v-.7c0-2.01,1.83-3.9,3.71-4.59,1.89.69,3.71,2.58,3.71,4.59v.7c0,.62.5,1.12,1.12,1.12s1.12-.5,1.12-1.12v-1.14c0-1.83-.87-3.55-2.34-4.63l-1.31-.97v-3.96s4.89.16,7.13-.43c.62-.16,1-.79.85-1.41-.15-.62-.77-1-1.39-.85h0Z"/>
          <ellipse class="cls-1" cx="16" cy="8.6" rx="1.95" ry="2.16"/>
        </g>
      </g>
    </g>
  </g>
</svg>