<?xml version="1.0" encoding="UTF-8"?>
<svg id="_Ñëîé_1" data-name="Ñëîé 1" xmlns="http://www.w3.org/2000/svg" xmlns:xlink="http://www.w3.org/1999/xlink" viewBox="0 0 35 35">
  <defs>
    <style>
      .cls-1 {
        fill: #7594b1;
      }

      .cls-2 {
        fill: none;
      }

      .cls-3 {
        clip-path: url(#clippath);
      }
    </style>
    <clipPath id="clippath">
      <rect class="cls-2" x="1" y="1" width="33" height="33"/>
    </clipPath>
  </defs>
  <g class="cls-3">
    <path class="cls-1" d="M33.97,10.7c-.08-1.75-.36-2.96-.77-4-.42-1.11-1.06-2.1-1.91-2.93-.83-.84-1.82-1.49-2.92-1.9-1.05-.41-2.25-.69-4-.77-1.77-.08-2.33-.1-6.81-.1s-5.04.02-6.8.1c-1.75.08-2.96.36-4,.77-1.11.42-2.1,1.06-2.93,1.91-.84.83-1.49,1.82-1.9,2.92-.41,1.05-.69,2.25-.77,4-.08,1.77-.1,2.33-.1,6.81s.02,5.04.1,6.8c.08,1.75.36,2.96.77,4,.42,1.11,1.07,2.1,1.91,2.93.83.84,1.82,1.49,2.92,1.9,1.05.41,2.25.69,4,.77,1.76.08,2.32.1,6.8.1s5.04-.02,6.8-.1c1.75-.08,2.96-.36,4-.77,2.22-.86,3.97-2.61,4.83-4.83.41-1.05.69-2.25.77-4,.08-1.76.1-2.32.1-6.8s0-5.04-.08-6.8h0ZM31,24.18c-.07,1.61-.34,2.48-.57,3.06-.55,1.44-1.7,2.58-3.13,3.13-.58.23-1.46.5-3.06.57-1.74.08-2.26.1-6.67.1s-4.93-.02-6.67-.1c-1.61-.07-2.48-.34-3.06-.57-.72-.26-1.37-.68-1.9-1.23-.55-.54-.97-1.18-1.23-1.9-.23-.58-.5-1.46-.57-3.06-.08-1.74-.1-2.26-.1-6.67s.02-4.93.1-6.67c.07-1.61.34-2.48.57-3.06.26-.72.68-1.37,1.24-1.9.53-.55,1.18-.97,1.9-1.23.58-.23,1.46-.5,3.06-.57,1.74-.08,2.26-.1,6.67-.1s4.93.02,6.67.1c1.61.07,2.48.34,3.06.57.72.26,1.37.68,1.9,1.23.55.54.97,1.18,1.23,1.9.23.58.5,1.46.57,3.06.08,1.74.1,2.26.1,6.67s-.02,4.92-.1,6.66h0ZM31,24.18"/>
  </g>
  <path class="cls-1" d="M17.56,9.03c-4.68,0-8.48,3.8-8.48,8.48s3.8,8.48,8.48,8.48,8.48-3.8,8.48-8.48-3.8-8.48-8.48-8.48h0ZM17.56,23c-3.04,0-5.5-2.46-5.5-5.5s2.46-5.5,5.5-5.5,5.5,2.46,5.5,5.5-2.46,5.5-5.5,5.5h0ZM17.56,23"/>
  <path class="cls-1" d="M28.35,8.69c0,1.09-.89,1.98-1.98,1.98s-1.98-.89-1.98-1.98.89-1.98,1.98-1.98,1.98.89,1.98,1.98h0ZM28.35,8.69"/>
</svg>