<?xml version="1.0" encoding="UTF-8"?>
<svg id="_Ñëîé_1" data-name="Ñëîé 1" xmlns="http://www.w3.org/2000/svg" viewBox="0 0 137.86 53.62">
  <defs>
    <style>
      .cls-1, .cls-2 {
        fill: #7594b1;
      }

      .cls-2 {
        font-family: Heebo-Regular, Heebo;
        font-size: 9.51px;
        font-variation-settings: ';
      }
    </style>
  </defs>
  <g>
    <g>
      <path class="cls-1" d="M113.84,15.04h5.5s5.37-.14,10.32,3.85v-4.11h4.95v6.49h-2.68s3.51,6.15,3.65,11.1h-6.08s.92-10.8-10.09-11.77v11.77h-5.8l.02-17.41.21.07Z"/>
      <path class="cls-1" d="M90.58,15.29v4.97s12.8-1.58,12.66,12.12h4.77s.6-18.64-17.43-17.09Z"/>
      <polygon class="cls-1" points="80.26 15.04 85.94 15.04 85.94 19.07 81.95 19.07 81.95 17.38 80.26 17.38 80.26 15.04"/>
      <path class="cls-1" d="M60.79,15.29s20.02-3.67,20.37,17.09h-4.75s.89-14.71-15.62-12.19c0-4.97,0-4.9,0-4.9Z"/>
      <rect class="cls-1" x="60.79" y="25.08" width="5.34" height="7.3"/>
    </g>
    <text class="cls-2" transform="translate(114.15 45.77)"><tspan x="0" y="0">בוטיק</tspan></text>
  </g>
  <g>
    <g>
      <rect class="cls-1" x="18.72" y="20.28" width="3.59" height="2.91"/>
      <rect class="cls-1" x="33.5" y="20.28" width="3.59" height="2.91"/>
      <path class="cls-1" d="M18.72,24.89s6.26.14,9.1,4.81c5.14-5.76,9.2-4.81,9.2-4.81v3.25s-7.05.54-6.78,7.59h-3.79s-.95-6.96-7.73-7.75v-3.09Z"/>
      <rect class="cls-1" x="24.96" y="36.54" width="6.03" height="2.26"/>
    </g>
    <path class="cls-1" d="M27.7,1.88C13.83,1.88,2.58,13.12,2.58,26.99s11.24,25.11,25.11,25.11,25.11-11.24,25.11-25.11S41.57,1.88,27.7,1.88ZM42.7,32.91l-3.78,1.97c-1.16.6-2.1,1.51-2.74,2.61l-2.08,3.62c-2.75,4.79-9.65,4.79-12.4,0l-2.08-3.62c-.63-1.1-1.58-2.01-2.74-2.61l-3.78-1.97c-4.79-2.5-4.79-9.35,0-11.85l3.78-1.97c1.16-.6,2.1-1.51,2.74-2.61l2.08-3.62c2.75-4.79,9.65-4.79,12.4,0l2.08,3.62c.63,1.1,1.58,2.01,2.74,2.61l3.78,1.97c4.79,2.5,4.79,9.35,0,11.85Z"/>
  </g>
</svg>