<?xml version="1.0" encoding="UTF-8"?>
<svg id="_Ñëîé_1" data-name="Ñëîé 1" xmlns="http://www.w3.org/2000/svg" viewBox="0 0 102.64 94.21">
  <defs>
    <style>
      .cls-1 {
        fill: #fff;
      }
    </style>
  </defs>
  <g>
    <rect class="cls-1" x="35.93" y="37.19" width="5.72" height="4.64"/>
    <rect class="cls-1" x="59.46" y="37.19" width="5.72" height="4.64"/>
    <path class="cls-1" d="M35.93,44.53s9.98.22,14.49,7.66c8.18-9.18,14.66-7.66,14.66-7.66v5.18s-11.23.86-10.79,12.09h-6.04s-1.51-11.08-12.31-12.34v-4.93Z"/>
    <rect class="cls-1" x="45.86" y="63.09" width="9.61" height="3.6"/>
  </g>
  <path class="cls-1" d="M50.22,7.87C28.13,7.87,10.22,25.78,10.22,47.87s17.91,40,40,40,40-17.91,40-40S72.32,7.87,50.22,7.87ZM74.12,57.31l-6.02,3.14c-1.84.96-3.35,2.4-4.36,4.16l-3.31,5.77c-4.37,7.63-15.38,7.63-19.75,0l-3.31-5.77c-1.01-1.75-2.52-3.2-4.36-4.16l-6.02-3.14c-7.63-3.98-7.63-14.89,0-18.87l6.02-3.14c1.84-.96,3.35-2.4,4.36-4.16l3.31-5.77c4.37-7.63,15.38-7.63,19.75,0l3.31,5.77c1.01,1.75,2.52,3.2,4.36,4.16l6.02,3.14c7.63,3.98,7.63,14.89,0,18.87Z"/>
</svg>