<?xml version="1.0" encoding="UTF-8"?>
<svg id="_Ñëîé_1" data-name="Ñëîé 1" xmlns="http://www.w3.org/2000/svg" viewBox="0 0 40 40">
  <defs>
    <style>
      .cls-1 {
        fill: #7594b1;
      }

      .cls-2 {
        fill: none;
        stroke-width: 2px;
      }

      .cls-2, .cls-3 {
        stroke: #fff;
        stroke-linecap: round;
        stroke-linejoin: round;
      }

      .cls-3 {
        fill: #fff;
      }
    </style>
  </defs>
  <path class="cls-1" d="M38.4,19.88c0,10.08-8.24,18.26-18.4,18.26-3.23,0-6.26-.82-8.9-2.27l-6.33,2.01c-1.6.51-3.1-1.02-2.56-2.61l2.02-5.96c-1.68-2.75-2.64-5.98-2.64-9.43C1.6,9.79,9.84,1.62,20,1.62s18.4,8.18,18.4,18.26h0Z"/>
  <g>
    <path class="cls-2" d="M19.66,6.87c-7.5,0-13.6,6.05-13.6,13.49,0,2.95.96,5.69,2.59,7.91l-1.7,5.01,5.23-1.66c2.15,1.41,4.72,2.23,7.48,2.23,7.5,0,13.6-6.05,13.6-13.49s-6.1-13.49-13.6-13.49h0Z"/>
    <path class="cls-3" d="M27.17,23.75c-.09-.15-.34-.25-.71-.43-.37-.18-2.2-1.08-2.54-1.2-.34-.12-.59-.18-.84.18-.25.37-.96,1.2-1.18,1.45-.22.25-.43.28-.81.09-.37-.18-1.57-.58-2.99-1.83-1.11-.98-1.85-2.19-2.07-2.56-.22-.37-.02-.57.16-.75.17-.17.37-.43.56-.65.19-.22.25-.37.37-.62.12-.25.06-.46-.03-.65-.09-.18-.84-2-1.15-2.74-.31-.74-.62-.71-.84-.71s-.62.06-.62.06c0,0-.75.09-1.09.46-.34.37-1.3,1.26-1.3,3.08s1.33,3.57,1.52,3.82c.19.25,2.57,4.1,6.36,5.57,3.78,1.48,3.78.98,4.47.92.68-.06,2.2-.89,2.51-1.75.31-.86.31-1.6.22-1.75h0Z"/>
  </g>
</svg>