<?xml version="1.0" encoding="UTF-8"?>
<svg id="_Ñëîé_1" data-name="Ñëîé 1" xmlns="http://www.w3.org/2000/svg" viewBox="0 0 32 30.83">
  <defs>
    <style>
      .cls-1 {
        fill: #7594b1;
      }

      .cls-2 {
        fill: none;
        stroke: #7594b1;
        stroke-miterlimit: 10;
      }
    </style>
  </defs>
  <g>
    <path class="cls-1" d="M29.05,10.83c0,.08,0,.16-.01.22.01.11.07,1.05-.36,2.45-.26.85-.64,1.71-1.14,2.54-.62,1.03-1.42,2.03-2.37,2.97-1.96,1.96-4.14,3.8-7.48,6.52l-.14.11-.14-.11c-3.34-2.72-5.53-4.56-7.48-6.52-.96-.94-1.76-1.94-2.38-2.97-.49-.83-.88-1.69-1.13-2.54-.43-1.4-.37-2.34-.36-2.45-.01-.06-.01-.14-.01-.22,0-.8.16-1.58.48-2.32.31-.72.75-1.37,1.32-1.94s1.22-1.01,1.94-1.32c.76-.33,1.56-.49,2.39-.49,1.18,0,2.34.36,3.35,1.05.48.32.91.71,1.29,1.15.28.32.52.66.73,1.03.21-.37.45-.71.73-1.03.38-.44.81-.83,1.28-1.15,1.02-.69,2.18-1.05,3.36-1.05.82,0,1.63.16,2.39.49.72.31,1.38.76,1.94,1.32.56.57,1.01,1.22,1.32,1.94.32.74.48,1.52.48,2.32ZM28.59,11.06c.01-.07.01-.15.01-.23,0-3.05-2.6-5.63-5.68-5.63-2.13,0-4.21,1.36-5.17,3.37l-.06.13h-.28l-.06-.13c-.96-2.01-3.04-3.37-5.17-3.37-3.08,0-5.68,2.58-5.68,5.63v.46s0,0,0,0c0,.34.05,1.1.35,2.11.39,1.28,1.3,3.24,3.4,5.3.95.96,1.97,1.88,3.15,2.91,1.18,1.02,2.52,2.13,4.15,3.46,3.25-2.65,5.39-4.46,7.3-6.37,1.05-1.03,1.8-2.04,2.34-2.94.53-.91.86-1.72,1.06-2.36.3-1.01.35-1.77.35-2.11h-.02v-.23Z"/>
    <path class="cls-1" d="M28.6,10.83c0,.08,0,.16-.01.23v.23s.01,0,.01,0c0,.34-.05,1.1-.35,2.11-.2.64-.53,1.45-1.06,2.36-.54.9-1.29,1.91-2.34,2.94-1.91,1.91-4.05,3.72-7.3,6.37-1.63-1.33-2.97-2.44-4.15-3.46-1.18-1.03-2.2-1.95-3.15-2.91-2.1-2.06-3.01-4.02-3.4-5.3-.3-1.01-.35-1.77-.35-2.11h.01v-.23c-.01-.08-.01-.15-.01-.23,0-3.05,2.6-5.63,5.68-5.63,2.13,0,4.21,1.36,5.17,3.37l.06.13h.28l.06-.13c.96-2.01,3.04-3.37,5.17-3.37,3.08,0,5.68,2.58,5.68,5.63Z"/>
  </g>
  <g>
    <path class="cls-2" d="M17.55,25.64l-.14-.11c-3.34-2.72-5.53-4.56-7.48-6.52-.96-.94-1.76-1.94-2.38-2.97-.49-.83-.88-1.69-1.13-2.54-.43-1.4-.37-2.34-.36-2.45-.01-.06-.01-.14-.01-.22,0-.8.16-1.58.48-2.32.31-.72.75-1.37,1.32-1.94s1.22-1.01,1.94-1.32c.76-.33,1.56-.49,2.39-.49,1.18,0,2.34.36,3.35,1.05.48.32.91.71,1.29,1.15.28.32.52.66.73,1.03.21-.37.45-.71.73-1.03.38-.44.81-.83,1.28-1.15,1.02-.69,2.18-1.05,3.36-1.05.82,0,1.63.16,2.39.49.72.31,1.38.76,1.94,1.32.56.57,1.01,1.22,1.32,1.94.32.74.48,1.52.48,2.32,0,.08,0,.16-.01.22.01.11.07,1.05-.36,2.45-.26.85-.64,1.71-1.14,2.54-.62,1.03-1.42,2.03-2.37,2.97-1.96,1.96-4.14,3.8-7.48,6.52l-.14.11Z"/>
    <path class="cls-2" d="M6.5,11.29c0,.34.05,1.1.35,2.11.39,1.28,1.3,3.24,3.4,5.3.95.96,1.97,1.88,3.15,2.91,1.18,1.02,2.52,2.13,4.15,3.46,3.25-2.65,5.39-4.46,7.3-6.37,1.05-1.03,1.8-2.04,2.34-2.94.53-.91.86-1.72,1.06-2.36.3-1.01.35-1.77.35-2.11h-.02v-.23c.02-.07.02-.15.02-.23,0-3.05-2.6-5.63-5.68-5.63-2.13,0-4.21,1.36-5.17,3.37l-.06.13h-.28l-.06-.13c-.96-2.01-3.04-3.37-5.17-3.37-3.08,0-5.68,2.58-5.68,5.63v.46s0,0,0,0Z"/>
  </g>
</svg>