<?xml version="1.0" encoding="UTF-8"?>
<svg id="_Ñëîé_1" data-name="Ñëîé 1" xmlns="http://www.w3.org/2000/svg" xmlns:xlink="http://www.w3.org/1999/xlink" viewBox="0 0 40 40">
  <defs>
    <style>
      .cls-1 {
        fill: #fff;
      }

      .cls-2 {
        fill: none;
      }

      .cls-3 {
        clip-path: url(#clippath);
      }
    </style>
    <clipPath id="clippath">
      <rect class="cls-2" x="2.86" y="2.97" width="34.28" height="34.28"/>
    </clipPath>
  </defs>
  <g class="cls-3">
    <path class="cls-1" d="M37.11,13.05c-.08-1.82-.37-3.07-.8-4.16-.44-1.15-1.1-2.18-1.98-3.04-.86-.87-1.9-1.55-3.03-1.98-1.09-.42-2.34-.72-4.16-.8-1.84-.09-2.42-.11-7.07-.11s-5.24.02-7.07.1c-1.82.08-3.07.38-4.16.8-1.15.44-2.18,1.11-3.04,1.98-.87.86-1.55,1.9-1.98,3.03-.42,1.09-.72,2.34-.8,4.16-.09,1.84-.11,2.42-.11,7.07s.02,5.24.1,7.07c.08,1.82.38,3.07.8,4.16.44,1.15,1.11,2.18,1.98,3.04.86.87,1.9,1.55,3.03,1.98,1.09.42,2.34.72,4.16.8,1.83.08,2.41.1,7.07.1s5.24-.02,7.07-.1c1.82-.08,3.07-.37,4.16-.8,2.3-.89,4.13-2.71,5.02-5.02.42-1.09.72-2.34.8-4.16.08-1.83.1-2.41.1-7.07s0-5.24-.09-7.07h0ZM34.02,27.04c-.07,1.67-.36,2.58-.59,3.18-.58,1.49-1.76,2.68-3.25,3.25-.6.23-1.51.52-3.18.59-1.81.08-2.35.1-6.92.1s-5.12-.02-6.93-.1c-1.67-.07-2.58-.35-3.18-.59-.74-.27-1.42-.71-1.97-1.28-.57-.56-1-1.23-1.28-1.97-.23-.6-.52-1.51-.59-3.18-.08-1.81-.1-2.35-.1-6.92s.02-5.12.1-6.92c.07-1.67.35-2.58.59-3.18.27-.74.71-1.42,1.29-1.97.56-.57,1.23-1,1.97-1.28.6-.23,1.51-.52,3.18-.59,1.81-.08,2.35-.1,6.92-.1s5.12.02,6.92.1c1.67.07,2.58.36,3.18.59.74.27,1.42.71,1.97,1.28.57.56,1,1.23,1.28,1.97.23.6.52,1.51.59,3.18.08,1.81.1,2.35.1,6.92s-.02,5.11-.1,6.92h0ZM34.02,27.04"/>
  </g>
  <path class="cls-1" d="M20.06,11.31c-4.86,0-8.81,3.94-8.81,8.81s3.94,8.81,8.81,8.81,8.81-3.94,8.81-8.81-3.94-8.81-8.81-8.81h0ZM20.06,25.83c-3.15,0-5.71-2.56-5.71-5.71s2.56-5.71,5.71-5.71,5.71,2.56,5.71,5.71-2.56,5.71-5.71,5.71h0ZM20.06,25.83"/>
  <path class="cls-1" d="M31.27,10.96c0,1.14-.92,2.06-2.06,2.06s-2.06-.92-2.06-2.06.92-2.06,2.06-2.06,2.06.92,2.06,2.06h0ZM31.27,10.96"/>
</svg>