<?xml version="1.0" encoding="UTF-8"?>
<svg id="_Слой_1" data-name="Слой 1" xmlns="http://www.w3.org/2000/svg" viewBox="0 0 63.05 40.16">
  <defs>
    <style>
      .cls-1 {
        fill: #7594b1;
        fill-rule: evenodd;
      }
    </style>
  </defs>
  <path class="cls-1" d="M31.24,32.82c2.29,0,4.15-1.92,4.15-4.26s-1.87-4.27-4.15-4.27-4.16,1.92-4.16,4.27,1.87,4.26,4.16,4.26Z"/>
  <path class="cls-1" d="M19.25,15.5h40.35l.17,1.37,2.68,21.54.22,1.75H0v-1.56c0-5.62.8-11.3,3.58-15.65,2.86-4.47,7.69-7.45,15.67-7.45h0ZM56.94,18.62H19.25c-6.79,0-10.82,2.41-13.14,6.03-2.15,3.35-2.92,7.8-3.05,12.38h56.17l-2.29-18.42Z"/>
  <path class="cls-1" d="M12.33,3.12c-.84,0-1.52-.7-1.52-1.56s.68-1.56,1.52-1.56h44.21c.79,0,1.44.62,1.51,1.42l4.41,37c.1.85-.49,1.63-1.32,1.74-.83.1-1.59-.5-1.69-1.36L55.19,3.12H12.33Z"/>
</svg>