<?xml version="1.0" encoding="UTF-8"?>
<svg id="_Слой_1" data-name="Слой 1" xmlns="http://www.w3.org/2000/svg" viewBox="0 0 49.14 50.44">
  <defs>
    <style>
      .cls-1 {
        fill: #7594b1;
        fill-rule: evenodd;
      }
    </style>
  </defs>
  <path class="cls-1" d="M24.57,0c6.78,0,12.93,2.82,17.37,7.39,4.45,4.56,7.2,10.87,7.2,17.83s-2.75,13.27-7.2,17.83c-4.45,4.56-10.59,7.39-17.37,7.39s-12.93-2.82-17.37-7.39C2.75,38.49,0,32.19,0,25.22S2.75,11.95,7.2,7.39C11.64,2.82,17.79,0,24.57,0h0ZM39.79,9.59c-3.89-4-9.28-6.47-15.22-6.47s-11.33,2.47-15.22,6.47c-3.9,4-6.31,9.53-6.31,15.63s2.41,11.63,6.31,15.63c3.9,4,9.28,6.47,15.22,6.47s11.33-2.48,15.22-6.47c3.9-4,6.31-9.53,6.31-15.63s-2.41-11.63-6.31-15.63Z"/>
  <path class="cls-1" d="M20.29,37.09h2.99v-9.51c.68.18,1.51.21,2.4.21,2.92,0,5.46-.88,7.07-2.61,1.17-1.23,1.78-2.92,1.78-5.07s-.79-3.84-2.02-4.97c-1.37-1.27-3.53-1.97-6.48-1.97-2.4,0-4.29.21-5.73.46v23.45h0ZM23.27,15.85c.51-.14,1.51-.25,2.81-.25,3.26,0,5.46,1.51,5.46,4.68s-2.2,5.04-5.8,5.04c-1,0-1.82-.07-2.47-.25v-9.23Z"/>
</svg>