<?xml version="1.0" encoding="UTF-8"?>
<svg id="_Слой_1" data-name="Слой 1" xmlns="http://www.w3.org/2000/svg" viewBox="0 0 69.72 55.67">
  <defs>
    <style>
      .cls-1 {
        fill: #7594b1;
        fill-rule: evenodd;
      }
    </style>
  </defs>
  <g>
    <path class="cls-1" d="M4.02,50.64c-1.34.64-2.72.53-3.07-.25-.36-.78.45-1.93,1.79-2.58l62.91-30.11c1.34-.64,2.72-.53,3.07.25.36.78-.45,1.93-1.79,2.58L4.02,50.64Z"/>
    <path class="cls-1" d="M65.65,50.64c1.34.64,2.72.53,3.07-.25.35-.78-.45-1.93-1.79-2.58L4.02,17.7c-1.34-.64-2.72-.53-3.08.25-.35.78.45,1.93,1.79,2.58l62.91,30.11Z"/>
  </g>
  <path class="cls-1" d="M36.19,3.93l23.5,48.23,1.1,2.26H8.89l1.1-2.26L33.48,3.93l1.35-2.78,1.35,2.78h0ZM55.88,51.3L34.84,8.1,13.79,51.3h42.09Z"/>
</svg>