<?xml version="1.0" encoding="UTF-8"?>
<svg id="_Ñëîé_1" data-name="Ñëîé 1" xmlns="http://www.w3.org/2000/svg" viewBox="0 0 50.12 43.66">
  <defs>
    <style>
      .cls-1 {
        fill: #fcfcfc;
        stroke-width: 2.59px;
      }

      .cls-1, .cls-2 {
        stroke: #fafbfc;
        stroke-linecap: round;
        stroke-linejoin: round;
      }

      .cls-2 {
        fill: none;
        stroke-width: 3.89px;
      }
    </style>
  </defs>
  <path class="cls-2" d="M27.84,3.06c-9.71,0-17.61,7.84-17.61,17.48,0,3.82,1.25,7.36,3.35,10.25l-2.2,6.49,6.77-2.15c2.78,1.82,6.11,2.89,9.69,2.89,9.71,0,17.61-7.84,17.61-17.47S37.55,3.06,27.84,3.06h0Z"/>
  <path class="cls-1" d="M37.56,24.92c-.12-.2-.44-.32-.92-.56-.48-.24-2.85-1.4-3.29-1.55-.44-.16-.76-.24-1.08.24-.32.48-1.25,1.56-1.53,1.87-.28.32-.56.36-1.04.12-.48-.24-2.04-.75-3.88-2.37-1.43-1.27-2.4-2.83-2.68-3.31-.28-.48-.03-.74.21-.97.22-.22.48-.56.72-.84.24-.28.32-.48.48-.8.16-.32.08-.6-.04-.84-.12-.24-1.08-2.59-1.49-3.55-.4-.96-.8-.92-1.08-.92s-.8.08-.8.08c0,0-.97.12-1.41.6-.44.48-1.69,1.64-1.69,3.99s1.73,4.63,1.97,4.94c.24.32,3.33,5.31,8.23,7.22,4.9,1.91,4.9,1.28,5.78,1.19.88-.08,2.85-1.16,3.25-2.27.4-1.12.4-2.07.28-2.27h0Z"/>
</svg>