<?xml version="1.0" encoding="UTF-8"?>
<svg id="_Ñëîé_1" data-name="Ñëîé 1" xmlns="http://www.w3.org/2000/svg" viewBox="0 0 40 40">
  <defs>
    <style>
      .cls-1 {
        fill: none;
        stroke-width: 3.45px;
      }

      .cls-1, .cls-2 {
        stroke: #fafbfc;
        stroke-linecap: round;
        stroke-linejoin: round;
      }

      .cls-2 {
        fill: #fcfcfc;
        stroke-width: 2.3px;
      }
    </style>
  </defs>
  <path class="cls-1" d="M20,4.47c-8.63,0-15.65,6.97-15.65,15.53,0,3.4,1.11,6.54,2.98,9.11l-1.95,5.77,6.01-1.91c2.47,1.62,5.43,2.57,8.61,2.57,8.63,0,15.65-6.97,15.65-15.53s-7.02-15.53-15.65-15.53h0Z"/>
  <path class="cls-2" d="M28.64,23.9c-.11-.18-.39-.28-.82-.5-.43-.21-2.54-1.24-2.93-1.38-.39-.14-.68-.21-.96.21-.29.43-1.11,1.38-1.36,1.67-.25.28-.5.32-.93.11-.43-.21-1.81-.66-3.44-2.11-1.27-1.13-2.13-2.52-2.38-2.94-.25-.42-.02-.65.19-.87.19-.19.43-.5.64-.74.21-.25.29-.43.43-.71.14-.28.07-.53-.04-.74-.11-.21-.96-2.3-1.32-3.15-.35-.85-.71-.82-.96-.82s-.71.07-.71.07c0,0-.86.11-1.25.53-.39.42-1.5,1.45-1.5,3.54s1.53,4.11,1.75,4.39c.21.28,2.96,4.71,7.32,6.42,4.35,1.7,4.35,1.13,5.14,1.06.78-.07,2.53-1.03,2.89-2.02.36-.99.36-1.84.25-2.02h0Z"/>
</svg>